<svg xmlns="http://www.w3.org/2000/svg" xmlns:xlink="http://www.w3.org/1999/xlink" width="120" height="120" viewBox="0 0 120 120"><rect width="100%" height="100%" fill="#DDDDDD"/><path d="M24.49 55.21L24.49 63.17L23.00 63.17L23.00 55.21L24.49 55.21ZM27.41 63.17L26.05 63.17L26.05 57.52L26.88 57.52Q27.14 57.52 27.23 57.77L27.23 57.77L27.31 58.19Q27.46 58.02 27.62 57.89Q27.79 57.75 27.97 57.65Q28.15 57.55 28.37 57.49Q28.58 57.43 28.83 57.43L28.83 57.43Q29.36 57.43 29.71 57.72Q30.05 58.01 30.22 58.49L30.22 58.49Q30.35 58.21 30.55 58.01Q30.75 57.81 30.99 57.68Q31.22 57.56 31.49 57.49Q31.76 57.43 32.03 57.43L32.03 57.43Q32.49 57.43 32.86 57.58Q33.22 57.72 33.47 58.00Q33.72 58.27 33.84 58.67Q33.97 59.06 33.97 59.57L33.97 59.57L33.97 63.17L32.62 63.17L32.62 59.57Q32.62 59.03 32.38 58.76Q32.14 58.49 31.69 58.49L31.69 58.49Q31.48 58.49 31.30 58.56Q31.12 58.63 30.98 58.77Q30.85 58.90 30.77 59.11Q30.70 59.31 30.70 59.57L30.70 59.57L30.70 63.17L29.33 63.17L29.33 59.57Q29.33 59.01 29.10 58.75Q28.88 58.49 28.44 58.49L28.44 58.49Q28.14 58.49 27.88 58.64Q27.63 58.78 27.41 59.03L27.41 59.03L27.41 63.17ZM36.62 59.17L36.62 61.70Q36.85 61.98 37.12 62.10Q37.39 62.21 37.71 62.21L37.71 62.21Q38.02 62.21 38.27 62.10Q38.52 61.98 38.69 61.75Q38.86 61.51 38.96 61.15Q39.05 60.79 39.05 60.30L39.05 60.30Q39.05 59.80 38.97 59.46Q38.89 59.12 38.74 58.90Q38.59 58.69 38.38 58.59Q38.17 58.49 37.90 58.49L37.90 58.49Q37.48 58.49 37.18 58.67Q36.88 58.85 36.62 59.17L36.62 59.17ZM36.44 57.77L36.55 58.29Q36.89 57.90 37.33 57.66Q37.77 57.42 38.37 57.42L38.37 57.42Q38.83 57.42 39.21 57.61Q39.59 57.80 39.87 58.17Q40.15 58.53 40.30 59.07Q40.45 59.61 40.45 60.30L40.45 60.30Q40.45 60.93 40.28 61.47Q40.11 62.01 39.80 62.41Q39.48 62.80 39.03 63.02Q38.58 63.25 38.03 63.25L38.03 63.25Q37.55 63.25 37.22 63.10Q36.88 62.96 36.62 62.70L36.62 62.70L36.62 65.01L35.26 65.01L35.26 57.52L36.09 57.52Q36.36 57.52 36.44 57.77L36.44 57.77ZM44.01 57.43L44.01 57.43Q44.63 57.43 45.15 57.64Q45.66 57.84 46.03 58.22Q46.39 58.59 46.59 59.13Q46.79 59.67 46.79 60.33L46.79 60.33Q46.79 61.00 46.59 61.54Q46.39 62.08 46.03 62.46Q45.66 62.84 45.15 63.04Q44.63 63.25 44.01 63.25L44.01 63.25Q43.37 63.25 42.86 63.04Q42.34 62.84 41.97 62.46Q41.61 62.08 41.41 61.54Q41.21 61.00 41.21 60.33L41.21 60.33Q41.21 59.67 41.41 59.13Q41.61 58.59 41.97 58.22Q42.34 57.84 42.86 57.64Q43.37 57.43 44.01 57.43ZM44.01 62.20L44.01 62.20Q44.71 62.20 45.05 61.73Q45.39 61.26 45.39 60.34L45.39 60.34Q45.39 59.43 45.05 58.95Q44.71 58.47 44.01 58.47L44.01 58.47Q43.29 58.47 42.95 58.95Q42.60 59.44 42.60 60.34L42.60 60.34Q42.60 61.25 42.95 61.73Q43.29 62.20 44.01 62.20ZM49.03 57.86L49.11 58.50Q49.37 58.00 49.74 57.71Q50.10 57.42 50.59 57.42L50.59 57.42Q50.99 57.42 51.22 57.59L51.22 57.59L51.13 58.61Q51.11 58.70 51.05 58.75Q51.00 58.79 50.91 58.79L50.91 58.79Q50.83 58.79 50.67 58.76Q50.51 58.73 50.35 58.73L50.35 58.73Q50.13 58.73 49.95 58.80Q49.78 58.86 49.64 58.99Q49.49 59.11 49.39 59.29Q49.28 59.46 49.19 59.69L49.19 59.69L49.19 63.17L47.83 63.17L47.83 57.52L48.63 57.52Q48.83 57.52 48.92 57.60Q49.00 57.67 49.03 57.86L49.03 57.86ZM53.81 63.25L53.81 63.25Q53.08 63.25 52.68 62.84Q52.29 62.42 52.29 61.69L52.29 61.69L52.29 58.54L51.71 58.54Q51.60 58.54 51.52 58.47Q51.45 58.40 51.45 58.25L51.45 58.25L51.45 57.71L52.35 57.57L52.64 56.03Q52.67 55.92 52.75 55.86Q52.82 55.80 52.94 55.80L52.94 55.80L53.65 55.80L53.65 57.57L55.15 57.57L55.15 58.54L53.65 58.54L53.65 61.60Q53.65 61.86 53.78 62.01Q53.91 62.16 54.13 62.16L54.13 62.16Q54.26 62.16 54.34 62.13Q54.43 62.10 54.49 62.07Q54.55 62.03 54.60 62.00Q54.65 61.97 54.70 61.97L54.70 61.97Q54.76 61.97 54.80 62.00Q54.84 62.03 54.88 62.09L54.88 62.09L55.29 62.75Q54.99 63.00 54.61 63.13Q54.22 63.25 53.81 63.25ZM59.00 61.71L59.00 60.76Q58.42 60.78 58.01 60.86Q57.61 60.93 57.37 61.05Q57.13 61.16 57.02 61.32Q56.92 61.47 56.92 61.65L56.92 61.65Q56.92 62.01 57.13 62.16Q57.34 62.32 57.68 62.32L57.68 62.32Q58.10 62.32 58.41 62.17Q58.71 62.02 59.00 61.71L59.00 61.71ZM56.13 58.74L55.89 58.31Q56.86 57.42 58.23 57.42L58.23 57.42Q58.73 57.42 59.12 57.58Q59.51 57.74 59.78 58.03Q60.05 58.32 60.19 58.72Q60.33 59.12 60.33 59.60L60.33 59.60L60.33 63.17L59.71 63.17Q59.52 63.17 59.42 63.11Q59.31 63.05 59.25 62.87L59.25 62.87L59.13 62.47Q58.92 62.66 58.71 62.80Q58.51 62.95 58.29 63.05Q58.07 63.15 57.82 63.20Q57.57 63.25 57.27 63.25L57.27 63.25Q56.91 63.25 56.61 63.16Q56.30 63.06 56.08 62.87Q55.86 62.68 55.74 62.39Q55.62 62.10 55.62 61.72L55.62 61.72Q55.62 61.51 55.69 61.30Q55.76 61.09 55.93 60.89Q56.09 60.70 56.35 60.53Q56.61 60.36 56.98 60.23Q57.36 60.11 57.86 60.03Q58.36 59.95 59.00 59.93L59.00 59.93L59.00 59.60Q59.00 59.03 58.76 58.76Q58.52 58.49 58.06 58.49L58.06 58.49Q57.73 58.49 57.52 58.57Q57.30 58.64 57.13 58.74Q56.97 58.84 56.83 58.91Q56.70 58.99 56.53 58.99L56.53 58.99Q56.39 58.99 56.29 58.92Q56.19 58.84 56.13 58.74L56.13 58.74ZM62.78 57.77L62.88 58.22Q63.05 58.04 63.24 57.90Q63.43 57.75 63.64 57.65Q63.85 57.55 64.09 57.49Q64.33 57.43 64.62 57.43L64.62 57.43Q65.08 57.43 65.44 57.59Q65.80 57.75 66.04 58.03Q66.28 58.31 66.40 58.71Q66.52 59.10 66.52 59.57L66.52 59.57L66.52 63.17L65.16 63.17L65.16 59.57Q65.16 59.06 64.93 58.77Q64.69 58.49 64.21 58.49L64.21 58.49Q63.86 58.49 63.55 58.65Q63.24 58.81 62.96 59.08L62.96 59.08L62.96 63.17L61.61 63.17L61.61 57.52L62.44 57.52Q62.70 57.52 62.78 57.77L62.78 57.77ZM69.69 63.25L69.69 63.25Q68.95 63.25 68.56 62.84Q68.17 62.42 68.17 61.69L68.17 61.69L68.17 58.54L67.59 58.54Q67.48 58.54 67.40 58.47Q67.33 58.40 67.33 58.25L67.33 58.25L67.33 57.71L68.23 57.57L68.52 56.03Q68.55 55.92 68.62 55.86Q68.70 55.80 68.82 55.80L68.82 55.80L69.53 55.80L69.53 57.57L71.03 57.57L71.03 58.54L69.53 58.54L69.53 61.60Q69.53 61.86 69.66 62.01Q69.78 62.16 70.01 62.16L70.01 62.16Q70.14 62.16 70.22 62.13Q70.31 62.10 70.37 62.07Q70.43 62.03 70.48 62.00Q70.53 61.97 70.58 61.97L70.58 61.97Q70.64 61.97 70.68 62.00Q70.72 62.03 70.76 62.09L70.76 62.09L71.17 62.75Q70.87 63.00 70.49 63.13Q70.10 63.25 69.69 63.25ZM80.25 61.29L80.25 61.29Q80.37 61.29 80.47 61.38L80.47 61.38L81.05 62.02Q80.56 62.62 79.86 62.93Q79.15 63.25 78.16 63.25L78.16 63.25Q77.28 63.25 76.57 62.95Q75.86 62.65 75.36 62.11Q74.86 61.57 74.59 60.82Q74.33 60.07 74.33 59.19L74.33 59.19Q74.33 58.29 74.61 57.55Q74.90 56.80 75.42 56.26Q75.94 55.72 76.66 55.42Q77.38 55.12 78.25 55.12L78.25 55.12Q79.12 55.12 79.80 55.41Q80.47 55.70 80.94 56.16L80.94 56.16L80.45 56.85Q80.40 56.91 80.34 56.96Q80.27 57.01 80.15 57.01L80.15 57.01Q80.06 57.01 79.98 56.96Q79.89 56.92 79.78 56.85Q79.68 56.78 79.54 56.70Q79.40 56.61 79.22 56.55Q79.04 56.48 78.80 56.43Q78.56 56.38 78.25 56.38L78.25 56.38Q77.72 56.38 77.27 56.57Q76.83 56.76 76.51 57.12Q76.19 57.48 76.02 58.00Q75.84 58.52 75.84 59.19L75.84 59.19Q75.84 59.86 76.03 60.38Q76.22 60.90 76.54 61.26Q76.87 61.62 77.31 61.81Q77.75 62.00 78.25 62.00L78.25 62.00Q78.56 62.00 78.80 61.97Q79.05 61.93 79.25 61.86Q79.46 61.79 79.64 61.68Q79.83 61.56 80.01 61.40L80.01 61.40Q80.06 61.35 80.12 61.32Q80.18 61.29 80.25 61.29ZM83.21 54.99L83.21 58.13Q83.54 57.82 83.94 57.63Q84.33 57.43 84.87 57.43L84.87 57.43Q85.33 57.43 85.68 57.59Q86.04 57.75 86.28 58.03Q86.52 58.31 86.64 58.71Q86.77 59.10 86.77 59.57L86.77 59.57L86.77 63.17L85.41 63.17L85.41 59.57Q85.41 59.06 85.17 58.77Q84.94 58.49 84.45 58.49L84.45 58.49Q84.10 58.49 83.79 58.65Q83.48 58.81 83.21 59.08L83.21 59.08L83.21 63.17L81.85 63.17L81.85 54.99L83.21 54.99ZM91.04 61.71L91.04 60.76Q90.45 60.78 90.05 60.86Q89.64 60.93 89.40 61.05Q89.16 61.16 89.06 61.32Q88.95 61.47 88.95 61.65L88.95 61.65Q88.95 62.01 89.16 62.16Q89.38 62.32 89.72 62.32L89.72 62.32Q90.13 62.32 90.44 62.17Q90.74 62.02 91.04 61.71L91.04 61.71ZM88.17 58.74L87.92 58.31Q88.90 57.42 90.27 57.42L90.27 57.42Q90.76 57.42 91.15 57.58Q91.54 57.74 91.81 58.03Q92.08 58.32 92.22 58.72Q92.36 59.12 92.36 59.60L92.36 59.60L92.36 63.17L91.75 63.17Q91.55 63.17 91.45 63.11Q91.34 63.05 91.28 62.87L91.28 62.87L91.16 62.47Q90.95 62.66 90.74 62.80Q90.54 62.95 90.32 63.05Q90.10 63.15 89.85 63.20Q89.60 63.25 89.30 63.25L89.30 63.25Q88.94 63.25 88.64 63.16Q88.34 63.06 88.12 62.87Q87.90 62.68 87.77 62.39Q87.65 62.10 87.65 61.72L87.65 61.72Q87.65 61.51 87.73 61.30Q87.80 61.09 87.96 60.89Q88.12 60.70 88.38 60.53Q88.64 60.36 89.02 60.23Q89.39 60.11 89.89 60.03Q90.39 59.95 91.04 59.93L91.04 59.93L91.04 59.60Q91.04 59.03 90.79 58.76Q90.55 58.49 90.10 58.49L90.10 58.49Q89.77 58.49 89.55 58.57Q89.33 58.64 89.17 58.74Q89.00 58.84 88.87 58.91Q88.73 58.99 88.57 58.99L88.57 58.99Q88.42 58.99 88.32 58.92Q88.23 58.84 88.17 58.74L88.17 58.74ZM95.52 63.25L95.52 63.25Q94.78 63.25 94.39 62.84Q94.00 62.42 94.00 61.69L94.00 61.69L94.00 58.54L93.42 58.54Q93.31 58.54 93.23 58.47Q93.15 58.40 93.15 58.25L93.15 58.25L93.15 57.71L94.06 57.57L94.35 56.03Q94.37 55.92 94.45 55.86Q94.53 55.80 94.65 55.80L94.65 55.80L95.35 55.80L95.35 57.57L96.86 57.57L96.86 58.54L95.35 58.54L95.35 61.60Q95.35 61.86 95.48 62.01Q95.61 62.16 95.84 62.16L95.84 62.16Q95.96 62.16 96.05 62.13Q96.13 62.10 96.20 62.07Q96.26 62.03 96.31 62.00Q96.36 61.97 96.41 61.97L96.41 61.97Q96.47 61.97 96.51 62.00Q96.55 62.03 96.59 62.09L96.59 62.09L97.00 62.75Q96.70 63.00 96.32 63.13Q95.93 63.25 95.52 63.25Z" fill="#999999"/></svg>